solid model
  facet normal -1 -0 0
    outer loop
      vertex 0 0 0
      vertex 0 0 0.8
      vertex 0 140 0.8
    endloop
  endfacet
  facet normal -0 0 -1
    outer loop
      vertex 0 0 0
      vertex 0 140 0
      vertex 40 30 0
    endloop
  endfacet
  facet normal -1 0 0
    outer loop
      vertex 0 0 0
      vertex 0 140 0.8
      vertex 0 140 0
    endloop
  endfacet
  facet normal 0 0 -1
    outer loop
      vertex 0 0 0
      vertex 40 30 0
      vertex 40 5 0
    endloop
  endfacet
  facet normal 0.124035 -0.992278 0
    outer loop
      vertex 0 0 0
      vertex 40 5 0
      vertex 40 5 0.8
    endloop
  endfacet
  facet normal 0.124035 -0.992278 0
    outer loop
      vertex 0 0 0
      vertex 40 5 0.8
      vertex 0 0 0.8
    endloop
  endfacet
  facet normal 0 0 1
    outer loop
      vertex 0 0 0.8
      vertex 40 30 0.8
      vertex 0 140 0.8
    endloop
  endfacet
  facet normal 0 0 1
    outer loop
      vertex 0 0 0.8
      vertex 40 5 0.8
      vertex 40 30 0.8
    endloop
  endfacet
  facet normal 0.939793 0.341743 0
    outer loop
      vertex 0 140 0
      vertex 0 140 0.8
      vertex 40 30 0.8
    endloop
  endfacet
  facet normal 0.939793 0.341743 0
    outer loop
      vertex 0 140 0
      vertex 40 30 0.8
      vertex 40 30 0
    endloop
  endfacet
  facet normal 1 0 0
    outer loop
      vertex 40 5 0
      vertex 40 30 0
      vertex 40 5 0.8
    endloop
  endfacet
  facet normal 1 -0 0
    outer loop
      vertex 40 5 0.8
      vertex 40 30 0
      vertex 40 30 0.8
    endloop
  endfacet
endsolid model
