solid OpenSCAD_Model
  facet normal 0 0 -1
    outer loop
      vertex 0 0 0
      vertex 30 25 0
      vertex 30 5 0
    endloop
  endfacet
  facet normal -0 0 -1
    outer loop
      vertex 30 25 0
      vertex 0 0 0
      vertex 0 140 0
    endloop
  endfacet
  facet normal 0.164399 -0.986394 0
    outer loop
      vertex 0 0 0
      vertex 30 5 0.5
      vertex 0 0 0.5
    endloop
  endfacet
  facet normal 0.164399 -0.986394 0
    outer loop
      vertex 30 5 0.5
      vertex 0 0 0
      vertex 30 5 0
    endloop
  endfacet
  facet normal 0 0 1
    outer loop
      vertex 0 0 0.5
      vertex 30 25 0.5
      vertex 0 140 0.5
    endloop
  endfacet
  facet normal 0 0 1
    outer loop
      vertex 30 25 0.5
      vertex 0 0 0.5
      vertex 30 5 0.5
    endloop
  endfacet
  facet normal 1 -0 0
    outer loop
      vertex 30 5 0.5
      vertex 30 25 0
      vertex 30 25 0.5
    endloop
  endfacet
  facet normal 1 0 0
    outer loop
      vertex 30 25 0
      vertex 30 5 0.5
      vertex 30 5 0
    endloop
  endfacet
  facet normal 0.967617 0.252422 0
    outer loop
      vertex 30 25 0.5
      vertex 0 140 0
      vertex 0 140 0.5
    endloop
  endfacet
  facet normal 0.967617 0.252422 0
    outer loop
      vertex 0 140 0
      vertex 30 25 0.5
      vertex 30 25 0
    endloop
  endfacet
  facet normal -1 0 0
    outer loop
      vertex 0 0 0
      vertex 0 140 0.5
      vertex 0 140 0
    endloop
  endfacet
  facet normal -1 -0 0
    outer loop
      vertex 0 140 0.5
      vertex 0 0 0
      vertex 0 0 0.5
    endloop
  endfacet
endsolid OpenSCAD_Model
